<?xml version="1.0" encoding="utf-8"?>
<!-- Generator: Adobe Illustrator 21.0.0, SVG Export Plug-In . SVG Version: 6.00 Build 0)  -->
<svg version="1.1" id="Layer_1" xmlns="http://www.w3.org/2000/svg" xmlns:xlink="http://www.w3.org/1999/xlink" x="0px" y="0px"
	 viewBox="0 0 83.5 35" style="enable-background:new 0 0 83.5 35;" xml:space="preserve">
<style type="text/css">
	.st0{fill:#43BA9E;}
	.st1{fill:none;stroke:#FFFFFF;stroke-width:2.5658;stroke-linecap:round;stroke-miterlimit:10;}
	.st2{fill:none;stroke:#FFFFFF;stroke-width:2.6064;stroke-linecap:round;stroke-miterlimit:10;}
</style>
<path class="st0" d="M65.9,33H17.6C9.4,33,2.8,26.3,2.8,18.2v0C2.8,10,9.4,3.4,17.6,3.4h48.4c8.1,0,14.8,6.7,14.8,14.8v0
	C80.8,26.3,74.1,33,65.9,33z"/>
<line class="st1" x1="14.4" y1="11.4" x2="27.9" y2="11.4"/>
<line class="st1" x1="14.4" y1="17.5" x2="21.1" y2="17.5"/>
<line class="st1" x1="14.4" y1="23.6" x2="27.9" y2="23.6"/>
<line class="st1" x1="34.9" y1="11.4" x2="48.4" y2="11.4"/>
<line class="st1" x1="34.9" y1="17.5" x2="41.7" y2="17.5"/>
<line class="st1" x1="34.9" y1="23.6" x2="48.4" y2="23.6"/>
<path class="st2" d="M67.7,23.6h-11c-0.5,0-0.8-0.6-0.4-0.9l11.9-10.5c0.4-0.3,0.1-0.9-0.4-0.9H56.5"/>
</svg>
